<svg width="30" height="30" viewBox="0 0 30 30" fill="none" xmlns="http://www.w3.org/2000/svg">
<path d="M10.8334 27.5C13.1334 27.5 15.0001 25.6334 15.0001 23.3334V19.1667H10.8334C8.53341 19.1667 6.66675 21.0334 6.66675 23.3334C6.66675 25.6334 8.53341 27.5 10.8334 27.5Z" fill="#0ACF83"/>
<path d="M6.66675 15C6.66675 12.7 8.53341 10.8333 10.8334 10.8333H15.0001V19.1666H10.8334C8.53341 19.1666 6.66675 17.3 6.66675 15Z" fill="#A259FF"/>
<path d="M6.66675 6.66667C6.66675 4.36667 8.53341 2.5 10.8334 2.5H15.0001V10.8333H10.8334C8.53341 10.8333 6.66675 8.96667 6.66675 6.66667Z" fill="#F24E1E"/>
<path d="M15 2.5H19.1667C21.4667 2.5 23.3333 4.36667 23.3333 6.66667C23.3333 8.96667 21.4667 10.8333 19.1667 10.8333H15V2.5Z" fill="#FF7262"/>
<path d="M23.3333 15C23.3333 17.3 21.4667 19.1666 19.1667 19.1666C16.8667 19.1666 15 17.3 15 15C15 12.7 16.8667 10.8333 19.1667 10.8333C21.4667 10.8333 23.3333 12.7 23.3333 15Z" fill="#1ABCFE"/>
</svg>
