<svg width="18" height="19" viewBox="0 0 18 19" fill="none" xmlns="http://www.w3.org/2000/svg">
<path fill-rule="evenodd" clip-rule="evenodd" d="M9 0.0109863C4.02991 0.0109863 0 4.14156 0 9.24049C0 13.3188 2.57946 16.7744 6.15536 17.9959C6.60536 18.0802 6.77009 17.795 6.77009 17.5499C6.77009 17.3289 6.76205 16.7503 6.75804 15.9788C4.25491 16.5373 3.72455 14.7412 3.72455 14.7412C3.31473 13.6764 2.72411 13.3912 2.72411 13.3912C1.90848 12.8166 2.78438 12.8286 2.78438 12.8286C3.68839 12.8929 4.1625 13.7809 4.1625 13.7809C4.96607 15.1913 6.26786 14.7854 6.78214 14.5484C6.8625 13.9537 7.09554 13.5438 7.35268 13.3148C5.3558 13.0818 3.25446 12.2902 3.25446 8.75431C3.25446 7.74577 3.60402 6.92207 4.17857 6.27917C4.08616 6.04613 3.77679 5.1059 4.26696 3.83619C4.26696 3.83619 5.02232 3.58707 6.74196 4.78043C7.46116 4.57551 8.22857 4.47506 8.99598 4.47104C9.75937 4.47506 10.5308 4.57551 11.25 4.78043C12.9696 3.58707 13.721 3.83619 13.721 3.83619C14.2112 5.1059 13.9018 6.04613 13.8094 6.27917C14.3839 6.92608 14.7335 7.74979 14.7335 8.75431C14.7335 12.2982 12.6281 13.0777 10.6232 13.3068C10.9446 13.5921 11.2339 14.1546 11.2339 15.0145C11.2339 16.248 11.2219 17.2445 11.2219 17.5458C11.2219 17.7909 11.3826 18.0802 11.8406 17.9878C15.4246 16.7704 18 13.3148 18 9.24049C18 4.14156 13.9701 0.0109863 9 0.0109863Z" fill="white"/>
</svg>
