<svg width="30" height="30" viewBox="0 0 30 30" fill="none" xmlns="http://www.w3.org/2000/svg">
<path fill-rule="evenodd" clip-rule="evenodd" d="M18.5462 29.9975C28.9737 29.6958 30 27.4979 30 15.02C30 1.25167 28.75 0 15 0C1.25 0 0 1.25167 0 15.02C0 27.5305 1.0325 29.7071 11.535 30C11.6262 29.8861 11.66 29.7434 11.66 29.5982C11.66 29.2853 11.6475 26.0735 11.6412 24.9683C7.84501 25.7681 7.04376 23.1922 7.04376 23.1922C6.42251 21.6626 5.5275 21.2546 5.5275 21.2546C4.28875 20.4335 5.62125 20.4498 5.62125 20.4498C6.99126 20.5436 7.71251 21.8153 7.71251 21.8153C8.93001 23.8393 10.9075 23.2548 11.685 22.9156C11.8087 22.0607 12.1612 21.4761 12.5512 21.1457C9.52001 20.8115 6.33375 19.675 6.33375 14.5995C6.33375 13.1538 6.86626 11.9722 7.73876 11.046C7.59751 10.7105 7.13001 9.36373 7.87251 7.5413C7.87251 7.5413 9.01876 7.18457 11.6262 8.89811C12.715 8.60397 13.8825 8.45752 15.0437 8.45251C16.2025 8.45752 17.37 8.60397 18.4612 8.89811C21.0675 7.18457 22.2112 7.5413 22.2112 7.5413C22.9562 9.36373 22.4875 10.7105 22.3462 11.046C23.2212 11.9722 23.75 13.1538 23.75 14.5995C23.75 19.6875 20.5587 20.8078 17.5175 21.1344C18.0075 21.5437 18.4437 22.3523 18.4437 23.5877C18.4437 24.7718 18.4362 26.8658 18.4312 28.2539C18.4287 28.9411 18.4275 29.4543 18.4275 29.5982C18.4275 29.7346 18.4637 29.8786 18.5462 29.9975Z" fill="#6E5494"/>
</svg>
