<svg width="18" height="19" viewBox="0 0 18 19" fill="none" xmlns="http://www.w3.org/2000/svg">
<path fill-rule="evenodd" clip-rule="evenodd" d="M9 0.0109863C13.9672 0.0109863 18 4.04376 18 9.01099C18 13.9782 13.9672 18.011 9 18.011C4.03277 18.011 0 13.9782 0 9.01099C0 4.04376 4.03277 0.0109863 9 0.0109863ZM9 3.38599C7.47236 3.38599 7.28079 3.39246 6.68081 3.41984C6.0821 3.44716 5.6732 3.54226 5.31538 3.6813C4.9455 3.82505 4.6318 4.01739 4.31909 4.33011C4.00637 4.64282 3.81403 4.95652 3.67028 5.3264C3.53123 5.68419 3.43617 6.09309 3.40882 6.6918C3.38147 7.29178 3.375 7.48334 3.375 9.01099C3.375 10.5386 3.38147 10.7302 3.40882 11.3302C3.43617 11.9289 3.53123 12.3378 3.67028 12.6956C3.81403 13.0655 4.00637 13.3792 4.31909 13.6919C4.6318 14.0046 4.9455 14.197 5.31538 14.3407C5.6732 14.4797 6.0821 14.5748 6.68081 14.6021C7.28079 14.6295 7.47236 14.636 9 14.636C10.5276 14.636 10.7192 14.6295 11.3192 14.6021C11.9179 14.5748 12.3268 14.4797 12.6846 14.3407C13.0545 14.197 13.3682 14.0046 13.6809 13.6919C13.9936 13.3792 14.186 13.0655 14.3297 12.6956C14.4687 12.3378 14.5638 11.9289 14.5911 11.3302C14.6185 10.7302 14.625 10.5386 14.625 9.01099C14.625 7.48334 14.6185 7.29178 14.5911 6.6918C14.5638 6.09309 14.4687 5.68419 14.3297 5.3264C14.186 4.95652 13.9936 4.64282 13.6809 4.33011C13.3682 4.01739 13.0545 3.82505 12.6846 3.6813C12.3268 3.54226 11.9179 3.44716 11.3192 3.41984C10.7192 3.39246 10.5276 3.38599 9 3.38599ZM9 4.39951C10.5019 4.39951 10.6798 4.40524 11.273 4.43231C11.8214 4.45734 12.1192 4.54895 12.3174 4.62598C12.58 4.72801 12.7674 4.84993 12.9642 5.04677C13.1611 5.24357 13.283 5.43099 13.385 5.69354C13.462 5.89175 13.5537 6.18956 13.5787 6.73799C13.6058 7.33115 13.6115 7.50904 13.6115 9.01099C13.6115 10.5129 13.6058 10.6908 13.5787 11.284C13.5537 11.8324 13.462 12.1302 13.385 12.3284C13.283 12.591 13.1611 12.7784 12.9642 12.9752C12.7674 13.1721 12.58 13.294 12.3174 13.396C12.1192 13.473 11.8214 13.5647 11.273 13.5897C10.6799 13.6167 10.5021 13.6225 9 13.6225C7.49795 13.6225 7.32009 13.6167 6.72701 13.5897C6.17857 13.5647 5.88076 13.473 5.68255 13.396C5.41997 13.294 5.23259 13.1721 5.03575 12.9752C4.83891 12.7784 4.71702 12.591 4.615 12.3284C4.53797 12.1302 4.44632 11.8324 4.42129 11.284C4.39422 10.6908 4.38852 10.5129 4.38852 9.01099C4.38852 7.50904 4.39422 7.33115 4.42129 6.73799C4.44632 6.18956 4.53797 5.89175 4.615 5.69354C4.71702 5.43099 4.83891 5.24357 5.03575 5.04677C5.23259 4.84993 5.41997 4.72801 5.68255 4.62598C5.88076 4.54895 6.17857 4.45734 6.72701 4.43231C7.32016 4.40524 7.49805 4.39951 9 4.39951ZM9 6.12248C7.40472 6.12248 6.11149 7.4157 6.11149 9.01099C6.11149 10.6063 7.40472 11.8995 9 11.8995C10.5953 11.8995 11.8885 10.6063 11.8885 9.01099C11.8885 7.4157 10.5953 6.12248 9 6.12248ZM9 10.886C7.96447 10.886 7.12501 10.0465 7.12501 9.01099C7.12501 7.97546 7.96447 7.136 9 7.136C10.0355 7.136 10.875 7.97546 10.875 9.01099C10.875 10.0465 10.0355 10.886 9 10.886ZM12.6777 6.00836C12.6777 6.38116 12.3754 6.68333 12.0026 6.68333C11.6299 6.68333 11.3277 6.38116 11.3277 6.00836C11.3277 5.63556 11.6299 5.33336 12.0026 5.33336C12.3754 5.33336 12.6777 5.63556 12.6777 6.00836Z" fill="white"/>
</svg>
