<svg width="30" height="30" viewBox="0 0 30 30" fill="none" xmlns="http://www.w3.org/2000/svg">
<path d="M15 26.7188C21.4721 26.7188 26.7188 21.4721 26.7188 15C26.7188 8.52791 21.4721 3.28125 15 3.28125C8.52791 3.28125 3.28125 8.52791 3.28125 15C3.28125 21.4721 8.52791 26.7188 15 26.7188Z" fill="#F0DB4F"/>
<path d="M11.3438 10.4531H13.3828V16.1953C13.3828 18.7734 12.1406 19.6875 10.1719 19.6875C9.67969 19.6875 9.07031 19.6172 8.67188 19.4766L8.90625 17.8125C9.1875 17.9063 9.5625 17.9766 9.96094 17.9766C10.8281 17.9766 11.3672 17.5781 11.3672 16.1953L11.3438 10.4531Z" fill="#323330"/>
<path d="M15.1875 17.4375C15.7266 17.7188 16.5937 18 17.4609 18C18.3984 18 18.8906 17.6016 18.8906 16.9922C18.8906 16.4297 18.4687 16.1016 17.3672 15.7266C15.8672 15.1875 14.8594 14.3437 14.8594 13.0078C14.8594 11.4844 16.1719 10.3125 18.3047 10.3125C19.3359 10.3125 20.0859 10.5234 20.625 10.7812L20.1562 12.4219C19.8047 12.2578 19.1484 12 18.2812 12C17.3906 12 16.9688 12.4219 16.9688 12.8672C16.9688 13.4531 17.4609 13.7109 18.6562 14.1563C20.25 14.7422 21 15.5859 21 16.875C21 18.3984 19.8516 19.6875 17.3438 19.6875C16.3125 19.6875 15.2813 19.4062 14.7656 19.125L15.1875 17.4375Z" fill="#323330"/>
</svg>
