<svg width="18" height="19" viewBox="0 0 18 19" fill="none" xmlns="http://www.w3.org/2000/svg">
<path d="M10.6397 7.73199C9.86973 7.73199 9.52497 8.15542 9.33247 8.45269V7.83495H7.88165C7.9005 8.24388 7.88165 12.2001 7.88165 12.2001H9.33247V9.76176C9.33247 9.63125 9.34153 9.50075 9.37996 9.40794C9.48509 9.14692 9.72363 8.87684 10.1246 8.87684C10.6495 8.87684 10.8594 9.27743 10.8594 9.86399V12.1997H12.3102H12.3106V9.69614C12.3106 8.3559 11.5946 7.73199 10.6397 7.73199ZM9.33211 8.46792H9.32268C9.32594 8.46284 9.32957 8.45813 9.33211 8.45305V8.46792V8.46792Z" fill="white"/>
<path d="M7.07826 7.83496H5.62744V12.2001H7.07826V7.83496Z" fill="white"/>
<path d="M9 0.0109863C4.03742 0.0109863 0 4.04841 0 9.01099C0 13.9736 4.03742 18.011 9 18.011C13.9626 18.011 18 13.9736 18 9.01099C18 4.04841 13.9626 0.0109863 9 0.0109863ZM13.7726 13.0818C13.7726 13.4639 13.455 13.7742 13.0624 13.7742H4.8763C4.48477 13.7742 4.16684 13.4642 4.16684 13.0818V4.80028C4.16684 4.41782 4.48477 4.10786 4.8763 4.10786H13.0624C13.4547 4.10786 13.7726 4.41818 13.7726 4.80028V13.0818V13.0818Z" fill="white"/>
<path d="M6.36262 5.73053C5.86669 5.73053 5.54187 6.05608 5.54187 6.48458C5.54187 6.90329 5.8569 7.23863 6.34341 7.23863H6.35283C6.85892 7.23863 7.17395 6.90329 7.17395 6.48458C7.16416 6.05644 6.85928 5.73053 6.36262 5.73053Z" fill="white"/>
</svg>
