<svg width="31" height="31" viewBox="0 0 31 31" fill="none" xmlns="http://www.w3.org/2000/svg">
<path d="M29.7333 1.58887H1.2666V30.0555H29.7333V1.58887Z" fill="url(#paint0_radial_114_257)"/>
<path d="M30.4111 30.7334H0.588867V0.911133H30.4111V30.7334ZM1.94442 29.3778H29.0555V2.26669H1.94442V29.3778Z" fill="#00B5EF"/>
<path d="M10.0778 23.9555H7.3667V7.68885L11.1918 7.68884C14.022 7.68884 16.5543 9.75245 16.8291 12.5693C17.1444 15.8013 14.6019 18.5333 11.4334 18.5333H10.0778V23.9555ZM10.0778 15.8222H11.4334C12.9286 15.8222 14.1445 14.6063 14.1445 13.1111C14.1445 11.6159 12.9286 10.4 11.4334 10.4H10.0778V15.8222Z" fill="#00B5EF"/>
<path d="M19.8881 23.9248C18.2693 23.7843 17.0739 23.2083 16.927 23.1348L18.1396 20.7097C18.1436 20.712 19.2519 21.2445 20.592 21.2445C21.1479 21.2445 21.6 20.7924 21.6 20.2364C21.6 19.8022 21.3233 19.4177 20.911 19.2807L20.2571 19.0629C18.8739 18.6022 17.7677 17.4425 17.5694 15.9982C17.2561 13.716 19.03 11.7556 21.2525 11.7556C23.2191 11.7556 24.7495 12.4924 24.9174 12.5764L23.7108 15.0042C23.7006 14.9991 22.5924 14.4667 21.2525 14.4667C20.6965 14.4667 20.2445 14.9188 20.2445 15.4748C20.2445 15.909 20.5211 16.2935 20.9335 16.4306L21.7681 16.7086C23.4075 17.255 24.4671 18.8595 24.2923 20.6137C24.0807 22.7372 22.0141 24.1093 19.8881 23.9248Z" fill="#00B5EF"/>
<path d="M30.4111 30.7334H0.588867V0.911133H30.4111V30.7334Z" fill="url(#paint1_linear_114_257)"/>
<defs>
<radialGradient id="paint0_radial_114_257" cx="0" cy="0" r="1" gradientUnits="userSpaceOnUse" gradientTransform="translate(11.2073 7.91479) scale(23.8419)">
<stop stop-color="#193458" stop-opacity="0.98"/>
<stop offset="0.933387" stop-color="#210021"/>
</radialGradient>
<linearGradient id="paint1_linear_114_257" x1="-2.4592" y1="7.44774" x2="33.4592" y2="24.1967" gradientUnits="userSpaceOnUse">
<stop stop-color="white" stop-opacity="0.2"/>
<stop offset="1" stop-color="white" stop-opacity="0"/>
</linearGradient>
</defs>
</svg>
