<svg width="127" height="52" viewBox="0 0 127 52" fill="none" xmlns="http://www.w3.org/2000/svg">
<path d="M64.4998 29.9894C64.4998 29.161 63.8282 28.4894 62.9998 28.4894C62.1713 28.4894 61.4998 29.161 61.4998 29.9894H64.4998ZM61.9391 51.05C62.5249 51.6358 63.4746 51.6358 64.0604 51.05L73.6064 41.5041C74.1921 40.9183 74.1921 39.9686 73.6064 39.3828C73.0206 38.797 72.0708 38.797 71.485 39.3828L62.9998 47.8681L54.5145 39.3828C53.9287 38.797 52.9789 38.797 52.3932 39.3828C51.8074 39.9686 51.8074 40.9183 52.3932 41.5041L61.9391 51.05ZM61.4998 29.9894V49.9894H64.4998V29.9894H61.4998Z" fill="white"/>
<path d="M33.8723 15.7578C35.6963 15.7578 36.6083 15.1338 36.6083 13.8858C36.6083 13.5018 36.5243 13.1778 36.3563 12.9138C36.2003 12.6378 35.9843 12.4038 35.7083 12.2118C35.4323 12.0078 35.1143 11.8338 34.7543 11.6898C34.4063 11.5458 34.0343 11.4018 33.6383 11.2578C33.1823 11.1018 32.7503 10.9278 32.3423 10.7358C31.9343 10.5318 31.5803 10.2978 31.2803 10.0338C30.9803 9.75776 30.7403 9.43376 30.5603 9.06176C30.3923 8.68976 30.3083 8.23976 30.3083 7.71176C30.3083 6.61976 30.6803 5.76775 31.4243 5.15575C32.1683 4.54375 33.1943 4.23775 34.5023 4.23775C35.2583 4.23775 35.9423 4.32175 36.5543 4.48975C37.1783 4.64576 37.6343 4.81976 37.9223 5.01176L37.3643 6.43376C37.1123 6.27776 36.7343 6.12776 36.2303 5.98375C35.7383 5.82776 35.1623 5.74976 34.5023 5.74976C34.1663 5.74976 33.8543 5.78576 33.5663 5.85776C33.2783 5.92976 33.0263 6.03776 32.8103 6.18176C32.5943 6.32576 32.4203 6.51175 32.2883 6.73975C32.1683 6.95575 32.1083 7.21376 32.1083 7.51376C32.1083 7.84976 32.1743 8.13176 32.3063 8.35976C32.4383 8.58776 32.6243 8.79176 32.8643 8.97176C33.1043 9.13976 33.3803 9.29576 33.6923 9.43976C34.0163 9.58376 34.3703 9.72776 34.7543 9.87176C35.2943 10.0878 35.7863 10.3038 36.2303 10.5198C36.6863 10.7358 37.0763 10.9938 37.4003 11.2938C37.7363 11.5938 37.9943 11.9538 38.1743 12.3738C38.3543 12.7818 38.4443 13.2798 38.4443 13.8678C38.4443 14.9598 38.0423 15.7998 37.2383 16.3878C36.4463 16.9758 35.3243 17.2698 33.8723 17.2698C33.3803 17.2698 32.9243 17.2338 32.5043 17.1618C32.0963 17.1018 31.7303 17.0298 31.4063 16.9458C31.0823 16.8498 30.8003 16.7538 30.5603 16.6578C30.3323 16.5498 30.1523 16.4598 30.0203 16.3878L30.5423 14.9478C30.8183 15.1038 31.2383 15.2778 31.8023 15.4698C32.3663 15.6618 33.0563 15.7578 33.8723 15.7578ZM46.6384 17.2698C45.7624 17.2698 44.9644 17.1258 44.2444 16.8378C43.5244 16.5498 42.9064 16.1298 42.3904 15.5778C41.8744 15.0258 41.4724 14.3478 41.1844 13.5438C40.9084 12.7278 40.7704 11.7978 40.7704 10.7538C40.7704 9.70976 40.9264 8.78576 41.2384 7.98176C41.5624 7.16576 41.9944 6.48176 42.5344 5.92976C43.0744 5.37776 43.7044 4.95776 44.4244 4.66975C45.1444 4.38175 45.9124 4.23775 46.7284 4.23775C47.2444 4.23775 47.7064 4.27376 48.1144 4.34576C48.5344 4.41776 48.8944 4.50176 49.1944 4.59776C49.5064 4.69376 49.7584 4.78975 49.9504 4.88576C50.1424 4.98176 50.2744 5.05376 50.3464 5.10176L49.8424 6.54176C49.7344 6.46976 49.5784 6.39176 49.3744 6.30776C49.1704 6.22376 48.9364 6.13976 48.6724 6.05576C48.4204 5.97176 48.1384 5.90576 47.8264 5.85776C47.5264 5.79776 47.2204 5.76776 46.9084 5.76776C46.2484 5.76776 45.6544 5.88176 45.1264 6.10976C44.5984 6.33776 44.1484 6.66776 43.7764 7.09976C43.4044 7.53176 43.1164 8.05976 42.9124 8.68376C42.7204 9.29576 42.6244 9.98576 42.6244 10.7538C42.6244 11.4978 42.7084 12.1758 42.8764 12.7878C43.0564 13.3998 43.3204 13.9278 43.6684 14.3718C44.0164 14.8038 44.4484 15.1398 44.9644 15.3798C45.4924 15.6198 46.1044 15.7398 46.8004 15.7398C47.6044 15.7398 48.2704 15.6558 48.7984 15.4878C49.3264 15.3198 49.7224 15.1698 49.9864 15.0378L50.4364 16.4778C50.3524 16.5378 50.2024 16.6158 49.9864 16.7118C49.7704 16.7958 49.5004 16.8798 49.1764 16.9638C48.8524 17.0478 48.4744 17.1198 48.0424 17.1798C47.6104 17.2398 47.1424 17.2698 46.6384 17.2698ZM59.2585 11.7798C59.4505 12.0198 59.6905 12.3378 59.9785 12.7338C60.2785 13.1178 60.5845 13.5498 60.8965 14.0298C61.2085 14.4978 61.5145 14.9898 61.8145 15.5058C62.1265 16.0218 62.3905 16.5198 62.6065 16.9998H60.6985C60.4585 16.5438 60.1945 16.0818 59.9065 15.6138C59.6305 15.1458 59.3485 14.7018 59.0605 14.2818C58.7725 13.8498 58.4845 13.4478 58.1965 13.0758C57.9205 12.7038 57.6685 12.3798 57.4405 12.1038C57.2845 12.1158 57.1225 12.1218 56.9545 12.1218C56.7985 12.1218 56.6365 12.1218 56.4685 12.1218H54.9025V16.9998H53.1565V4.70576C53.6485 4.58576 54.1945 4.50776 54.7945 4.47176C55.4065 4.42376 55.9645 4.39976 56.4685 4.39976C58.2205 4.39976 59.5525 4.72976 60.4645 5.38976C61.3885 6.04976 61.8505 7.03376 61.8505 8.34176C61.8505 9.16976 61.6285 9.87776 61.1845 10.4658C60.7525 11.0538 60.1105 11.4918 59.2585 11.7798ZM56.6125 5.92976C55.8685 5.92976 55.2985 5.94776 54.9025 5.98375V10.6818H56.1445C56.7445 10.6818 57.2845 10.6518 57.7645 10.5918C58.2445 10.5318 58.6465 10.4178 58.9705 10.2498C59.3065 10.0818 59.5645 9.84776 59.7445 9.54776C59.9245 9.23576 60.0145 8.82776 60.0145 8.32376C60.0145 7.85576 59.9245 7.46576 59.7445 7.15375C59.5645 6.84176 59.3185 6.59576 59.0065 6.41576C58.7065 6.23576 58.3465 6.10976 57.9265 6.03776C57.5185 5.96576 57.0805 5.92976 56.6125 5.92976ZM64.4995 10.7538C64.4995 9.68576 64.6555 8.74376 64.9675 7.92776C65.2915 7.11176 65.7235 6.43376 66.2635 5.89376C66.8155 5.34176 67.4515 4.92775 68.1715 4.65175C68.9035 4.37575 69.6775 4.23775 70.4935 4.23775C71.2975 4.23775 72.0535 4.37575 72.7615 4.65175C73.4815 4.92775 74.1115 5.34176 74.6515 5.89376C75.1915 6.43376 75.6175 7.11176 75.9295 7.92776C76.2535 8.74376 76.4155 9.68576 76.4155 10.7538C76.4155 11.8218 76.2535 12.7638 75.9295 13.5798C75.6175 14.3958 75.1915 15.0798 74.6515 15.6318C74.1115 16.1718 73.4815 16.5798 72.7615 16.8558C72.0535 17.1318 71.2975 17.2698 70.4935 17.2698C69.6775 17.2698 68.9035 17.1318 68.1715 16.8558C67.4515 16.5798 66.8155 16.1718 66.2635 15.6318C65.7235 15.0798 65.2915 14.3958 64.9675 13.5798C64.6555 12.7638 64.4995 11.8218 64.4995 10.7538ZM66.3355 10.7538C66.3355 11.5098 66.4315 12.1998 66.6235 12.8238C66.8155 13.4358 67.0855 13.9578 67.4335 14.3898C67.7935 14.8218 68.2255 15.1578 68.7295 15.3978C69.2455 15.6258 69.8215 15.7398 70.4575 15.7398C71.0935 15.7398 71.6635 15.6258 72.1675 15.3978C72.6715 15.1578 73.0975 14.8218 73.4455 14.3898C73.8055 13.9578 74.0815 13.4358 74.2735 12.8238C74.4655 12.1998 74.5615 11.5098 74.5615 10.7538C74.5615 9.99776 74.4655 9.31376 74.2735 8.70176C74.0815 8.07776 73.8055 7.54976 73.4455 7.11776C73.0975 6.68576 72.6715 6.35576 72.1675 6.12776C71.6635 5.88776 71.0935 5.76776 70.4575 5.76776C69.8215 5.76776 69.2455 5.88776 68.7295 6.12776C68.2255 6.35576 67.7935 6.68576 67.4335 7.11776C67.0855 7.54976 66.8155 8.07776 66.6235 8.70176C66.4315 9.31376 66.3355 9.99776 66.3355 10.7538ZM87.2392 15.4878V16.9998H79.7332V4.52576H81.4792V15.4878H87.2392ZM97.2932 15.4878V16.9998H89.7872V4.52576H91.5332V15.4878H97.2932Z" fill="white"/>
</svg>
