<svg width="23" height="30" viewBox="0 0 23 30" fill="none" xmlns="http://www.w3.org/2000/svg">
<path d="M23 11.8945C23 5.32621 17.853 1.91747e-05 11.5057 1.91747e-05C5.15824 -0.0116548 0.0112889 5.30867 7.67136e-06 11.8711C-0.00572748 17.0392 3.20476 21.6153 7.95542 23.2032V29.1621C7.95542 29.625 8.31781 30 8.76515 30H14.2235C14.6708 30 15.0332 29.625 15.0332 29.1621V23.209C19.7725 21.6268 22.9943 17.0566 23 11.8945ZM7.62134 11.8945C7.62134 6.57422 15.3956 6.57422 15.3956 11.8945C15.39 17.1621 7.62134 17.2266 7.62134 11.8945Z" fill="#2684FF"/>
</svg>
