<svg width="18" height="19" viewBox="0 0 18 19" fill="none" xmlns="http://www.w3.org/2000/svg">
<path fill-rule="evenodd" clip-rule="evenodd" d="M9 0.0109863C13.9672 0.0109863 18 4.04376 18 9.01099C18 13.9782 13.9672 18.011 9 18.011C4.03277 18.011 0 13.9782 0 9.01099C0 4.04376 4.03277 0.0109863 9 0.0109863ZM7.41477 13.7978C11.3974 13.7978 13.575 10.4977 13.575 7.63761C13.575 7.54332 13.575 7.44903 13.5705 7.35921C13.9925 7.05391 14.3607 6.67225 14.6526 6.23674C14.2664 6.40735 13.8489 6.5241 13.4088 6.57796C13.8579 6.30856 14.1991 5.88651 14.3607 5.37917C13.9431 5.62611 13.4807 5.80569 12.9868 5.90447C12.5917 5.48242 12.0304 5.22202 11.4063 5.22202C10.212 5.22202 9.24219 6.19184 9.24219 7.38617C9.24219 7.55678 9.26016 7.7229 9.30055 7.88004C7.50009 7.79026 5.90614 6.92819 4.83757 5.61711C4.65346 5.9359 4.5457 6.30856 4.5457 6.70368C4.5457 7.45349 4.92736 8.11802 5.51106 8.50414C5.15633 8.49517 4.82407 8.39639 4.53224 8.23477V8.2617C4.53224 9.31235 5.27755 10.1834 6.26984 10.3855C6.09026 10.4348 5.89718 10.4618 5.69964 10.4618C5.56042 10.4618 5.42573 10.4483 5.29105 10.4214C5.56492 11.2834 6.36413 11.9075 7.31152 11.9255C6.57067 12.5047 5.63678 12.8504 4.62203 12.8504C4.44691 12.8504 4.2763 12.8414 4.10569 12.819C5.05308 13.4386 6.19351 13.7978 7.41477 13.7978Z" fill="white"/>
</svg>
