<svg width="30" height="30" viewBox="0 0 30 30" fill="none" xmlns="http://www.w3.org/2000/svg">
<path d="M29.417 4.35218L22.2042 0.21395C22.1718 0.195558 22.1357 0.186362 22.1009 0.171418C21.6236 -0.102165 21.0069 -0.0527358 20.6114 0.351891L10.4908 10.7216L4.91292 5.83159C4.54507 5.50973 4.00652 5.43961 3.56294 5.65112L0.664622 7.03628C0.324421 7.19836 0.0851991 7.50298 0.0190824 7.86048C-0.0470343 8.21797 0.064763 8.58352 0.323219 8.8479L6.32061 14.9932L0.323219 21.1384C0.064763 21.4028 -0.0482364 21.7695 0.0190824 22.1259C0.0864012 22.4822 0.325623 22.788 0.664622 22.9501L3.56294 24.3364C3.73364 24.418 3.91756 24.4571 4.10029 24.4571C4.37557 24.4571 4.64966 24.3663 4.87085 24.1904L10.736 19.5165L20.6114 29.6345C20.8482 29.877 21.1692 30 21.4902 30C21.7102 30 21.9217 29.923 22.1153 29.808C22.1441 29.7942 22.1754 29.7885 22.203 29.7724L29.4158 25.6342C29.7776 25.4273 30 25.0525 30 24.649V5.33731C30 4.93383 29.7776 4.55909 29.417 4.35218ZM3.93439 21.9431L3.17826 21.5822L7.96391 16.6784L9.0915 17.8336L3.93439 21.9431ZM20.383 26.0307L3.17826 8.40419L3.89833 8.06049L20.383 22.511V26.0307ZM20.383 19.3912L15.8643 15.43L20.383 11.8297V19.3912ZM20.383 8.83641L14.0755 13.8621L12.2639 12.2734L20.383 3.9556V8.83641ZM27.5958 23.9973L22.7873 26.7561V3.22911L27.5958 5.98793V23.9973Z" fill="#5A80E2"/>
</svg>
