<svg width="29" height="28" viewBox="0 0 29 28" fill="none" xmlns="http://www.w3.org/2000/svg">
<g clip-path="url(#clip0_114_265)">
<path d="M14.5007 0.266724C21.9872 0.267147 28.0559 6.33654 28.0554 13.8231C28.0551 20.1066 23.7796 25.3913 17.9792 26.9271C16.8687 27.2212 15.7022 27.3779 14.4991 27.3778C7.01259 27.3774 0.943886 21.308 0.944336 13.8215C0.944786 6.33498 7.01415 0.2663 14.5007 0.266724Z" fill="url(#paint0_linear_114_265)"/>
<path d="M6.12032 9.09505C6.12038 9.09505 6.70274 9.09505 6.70274 9.09505C6.70274 9.09505 6.83562 9.07363 6.92526 9.24355C6.95513 9.30018 6.98844 9.3781 7.02412 9.48514C7.02855 9.49835 7.03344 9.51143 7.0381 9.52456C7.0429 9.53804 7.04769 9.55151 7.05245 9.56499C7.05748 9.57913 7.06251 9.59327 7.06754 9.60743C7.07292 9.62255 7.07832 9.63769 7.08372 9.65281C7.08957 9.6692 7.09542 9.68561 7.1013 9.70198C7.10773 9.71995 7.11414 9.73785 7.12058 9.7558C7.12767 9.77552 7.13474 9.79525 7.14181 9.81497C7.14959 9.83666 7.15743 9.85839 7.16524 9.88008C7.17384 9.90393 7.18242 9.92779 7.19105 9.95164C7.20048 9.97777 7.20993 10.0039 7.21938 10.0301C7.22968 10.0586 7.23998 10.0871 7.25031 10.1156C7.26151 10.1464 7.2727 10.1774 7.2839 10.2083C7.296 10.2417 7.30808 10.275 7.32018 10.3083C7.33315 10.3441 7.3461 10.3798 7.35912 10.4156C7.37294 10.4536 7.38679 10.4918 7.40063 10.5298C7.41533 10.5702 7.43 10.6106 7.44469 10.651C7.46015 10.6935 7.47564 10.7361 7.49113 10.7786C7.50736 10.8232 7.52359 10.8678 7.53982 10.9124C7.55676 10.9589 7.57371 11.0054 7.59062 11.0519C7.6082 11.1002 7.62581 11.1484 7.64342 11.1968C7.66161 11.2467 7.67982 11.2966 7.69801 11.3466C7.71675 11.398 7.73553 11.4494 7.75424 11.5008C7.77349 11.5536 7.79274 11.6063 7.81199 11.6591C7.83169 11.7131 7.85138 11.7671 7.87108 11.8211C7.89118 11.8763 7.9113 11.9314 7.93139 11.9865C7.95186 12.0426 7.97232 12.0987 7.99282 12.1548C8.01363 12.2118 8.03444 12.2688 8.05522 12.3258C8.07632 12.3837 8.09745 12.4415 8.11855 12.4993C8.13992 12.5579 8.16131 12.6165 8.18267 12.675C8.2043 12.7343 8.22594 12.7935 8.24757 12.8527C8.26941 12.9126 8.29128 12.9725 8.31315 13.0323C8.3352 13.0927 8.35728 13.1531 8.37934 13.2136C8.4016 13.2746 8.42387 13.3355 8.44611 13.3964C8.46856 13.4578 8.49098 13.5193 8.51341 13.5807C8.53602 13.6426 8.55863 13.7044 8.58124 13.7663C8.60398 13.8286 8.62672 13.8909 8.64949 13.9532C8.6724 14.0158 8.69527 14.0785 8.71817 14.1412C8.74118 14.2041 8.76419 14.2671 8.78722 14.3301C8.81033 14.3934 8.83345 14.4566 8.85661 14.5198C8.87978 14.5833 8.903 14.6468 8.92624 14.7103C8.94952 14.774 8.97279 14.8376 8.99606 14.9013C9.01939 14.9651 9.04274 15.0289 9.06606 15.0927C9.08944 15.1565 9.11279 15.2204 9.13612 15.2842C9.15947 15.3481 9.18285 15.412 9.20617 15.4759C9.2295 15.5397 9.25287 15.6035 9.27623 15.6674C9.29952 15.731 9.32282 15.7948 9.34615 15.8585C9.36937 15.922 9.39261 15.9856 9.41586 16.0491C9.43902 16.1125 9.46217 16.1757 9.48533 16.239C9.50837 16.302 9.53143 16.365 9.55446 16.428C9.57736 16.4906 9.60026 16.5532 9.62316 16.6158C9.64591 16.6779 9.66868 16.7401 9.69139 16.8022C9.71398 16.8639 9.73651 16.9255 9.75906 16.9871C9.78144 17.0482 9.80375 17.1092 9.82607 17.1702C9.84815 17.2306 9.87023 17.291 9.89234 17.3513C9.91416 17.411 9.93597 17.4706 9.95782 17.5302C9.97934 17.589 10.0008 17.6478 10.0224 17.7066C10.0435 17.7645 10.0648 17.8223 10.0859 17.8802C10.1067 17.937 10.1275 17.9939 10.1483 18.0507C10.1687 18.1065 10.1891 18.1623 10.2095 18.218C10.2295 18.2726 10.2495 18.3271 10.2695 18.3817C10.2889 18.4349 10.3085 18.4881 10.3279 18.5414C10.3469 18.5932 10.3659 18.645 10.3848 18.6969C10.4032 18.7472 10.4217 18.7975 10.4401 18.8478C10.4579 18.8965 10.4757 18.9452 10.4936 18.9939C10.5107 19.0409 10.528 19.0879 10.5452 19.1349C10.5617 19.1801 10.5782 19.2253 10.5948 19.2704C10.6106 19.3138 10.6265 19.3571 10.6423 19.4004C10.6575 19.4418 10.6727 19.4831 10.6878 19.5245C10.7022 19.5639 10.7167 19.6034 10.7311 19.6428C10.7448 19.6802 10.7585 19.7176 10.7722 19.755C10.7852 19.7904 10.7981 19.8258 10.8111 19.8612C10.8234 19.8947 10.8356 19.9281 10.8478 19.9615C10.8594 19.9931 10.8709 20.0246 10.8825 20.0561C10.8934 20.0858 10.9043 20.1156 10.9152 20.1453C10.9254 20.1732 10.9356 20.2012 10.9459 20.2292C10.9556 20.2557 10.9653 20.2821 10.975 20.3085C10.9841 20.3335 10.9933 20.3585 11.0025 20.3836C11.0112 20.4073 11.0199 20.4312 11.0287 20.455C11.037 20.4778 11.0454 20.5007 11.0537 20.5235C11.0618 20.5456 11.0699 20.5677 11.078 20.5897C11.1076 20.6705 11.1381 20.7511 11.1758 20.8285C11.1867 20.8509 11.198 20.873 11.2103 20.8946C11.2202 20.9119 11.2303 20.9299 11.2438 20.9448C11.2768 20.9813 11.352 21.026 11.4409 21.0298C11.6246 21.0375 11.8367 21.0319 11.8367 21.0319C11.8367 21.0319 11.9903 21.0482 12.095 20.8181C12.1978 20.5921 14.5305 13.69 14.5305 13.69C14.5305 13.69 14.6387 13.3238 14.7659 13.6984C14.7692 13.708 14.7728 13.7176 14.7763 13.7272C14.7798 13.7371 14.7833 13.747 14.7868 13.7568C14.7905 13.7672 14.7942 13.7775 14.7979 13.7878C14.8019 13.7989 14.8059 13.8099 14.8098 13.8209C14.8141 13.8328 14.8184 13.8448 14.8227 13.8567C14.8274 13.8698 14.8321 13.8828 14.8368 13.8959C14.842 13.9102 14.8472 13.9244 14.8523 13.9387C14.858 13.9544 14.8637 13.9701 14.8694 13.9857C14.8757 14.0028 14.8819 14.02 14.8882 14.0372C14.895 14.0559 14.9018 14.0746 14.9087 14.0933C14.9161 14.1137 14.9235 14.134 14.931 14.1543C14.939 14.1763 14.947 14.1983 14.9551 14.2202C14.9637 14.2438 14.9723 14.2673 14.981 14.2909C14.9902 14.3161 14.9994 14.3412 15.0086 14.3664C15.0184 14.393 15.0282 14.4197 15.038 14.4463C15.0483 14.4745 15.0587 14.5025 15.069 14.5307C15.0798 14.5601 15.0907 14.5896 15.1015 14.6191C15.1129 14.6498 15.1242 14.6805 15.1355 14.7113C15.1472 14.7432 15.159 14.775 15.1707 14.8069C15.1829 14.8399 15.1951 14.8728 15.2072 14.9058C15.2197 14.9397 15.2322 14.9736 15.2447 15.0075C15.2576 15.0423 15.2704 15.0772 15.2833 15.1119C15.2964 15.1475 15.3096 15.1831 15.3227 15.2187C15.3361 15.255 15.3495 15.2913 15.363 15.3276C15.3766 15.3645 15.3903 15.4015 15.4039 15.4384C15.4178 15.476 15.4317 15.5135 15.4455 15.551C15.4596 15.5891 15.4737 15.6272 15.4878 15.6652C15.502 15.7038 15.5163 15.7424 15.5306 15.781C15.545 15.82 15.5595 15.8591 15.5739 15.8981C15.5885 15.9376 15.6031 15.9771 15.6177 16.0166C15.6325 16.0565 15.6472 16.0964 15.662 16.1363C15.6769 16.1766 15.6918 16.217 15.7067 16.2572C15.7218 16.2979 15.7369 16.3386 15.7519 16.3793C15.7671 16.4203 15.7823 16.4613 15.7975 16.5023C15.8128 16.5436 15.8281 16.5849 15.8434 16.6263C15.8588 16.6679 15.8742 16.7095 15.8896 16.7511C15.9051 16.793 15.9206 16.8348 15.9361 16.8767C15.9516 16.9187 15.9672 16.9607 15.9828 17.0027C15.9984 17.0449 16.0141 17.0871 16.0297 17.1292C16.0453 17.1715 16.061 17.2137 16.0766 17.256C16.0923 17.2982 16.108 17.3405 16.1237 17.3828C16.1393 17.425 16.155 17.4672 16.1706 17.5095C16.1863 17.5516 16.2019 17.5938 16.2176 17.6359C16.2331 17.6779 16.2488 17.7198 16.2644 17.7618C16.2799 17.8036 16.2954 17.8454 16.311 17.8872C16.3264 17.9287 16.3418 17.9702 16.3573 18.0117C16.3726 18.053 16.3879 18.0942 16.4032 18.1354C16.4184 18.1762 16.4336 18.2171 16.4488 18.258C16.4639 18.2984 16.479 18.3389 16.494 18.3794C16.5089 18.4194 16.5238 18.4595 16.5387 18.4996C16.5535 18.5392 16.5682 18.5788 16.583 18.6184C16.5976 18.6576 16.6122 18.6967 16.6267 18.7359C16.6411 18.7745 16.6555 18.8132 16.6699 18.8518C16.6841 18.8899 16.6983 18.9281 16.7125 18.9662C16.7265 19.0038 16.7405 19.0413 16.7545 19.0789C16.7683 19.1159 16.7821 19.1529 16.7959 19.1899C16.8094 19.2262 16.823 19.2626 16.8365 19.2989C16.8498 19.3346 16.8631 19.3703 16.8764 19.406C16.8894 19.4409 16.9025 19.4759 16.9155 19.5109C16.9282 19.545 16.941 19.5792 16.9537 19.6134C16.9661 19.6466 16.9785 19.6799 16.9909 19.7132C17.003 19.7455 17.015 19.7779 17.0271 19.8102C17.0387 19.8415 17.0504 19.8727 17.0621 19.904C17.0733 19.9341 17.0846 19.9643 17.0958 19.9944C17.1066 20.0233 17.1174 20.0522 17.1282 20.0811C17.1385 20.1086 17.1488 20.1362 17.1591 20.1637C17.1689 20.1898 17.1787 20.2159 17.1884 20.2421C17.1977 20.2667 17.2069 20.2912 17.2161 20.3158C17.2248 20.3389 17.2334 20.3619 17.2421 20.3849C17.2501 20.4063 17.2582 20.4276 17.2663 20.449C17.2738 20.4687 17.2812 20.4884 17.2887 20.5081C17.2956 20.5262 17.3024 20.5442 17.3093 20.5623C17.3155 20.5787 17.3218 20.5951 17.3281 20.6114C17.3338 20.6262 17.3395 20.641 17.3452 20.6558C17.3503 20.6691 17.3555 20.6824 17.3606 20.6957C17.3653 20.7075 17.3699 20.7194 17.3745 20.7313C17.3932 20.7789 17.4107 20.8267 17.4354 20.8686C17.4616 20.9131 17.4959 20.951 17.5485 20.9755C17.5981 20.9987 17.6508 21.0155 17.7052 21.0224C17.7507 21.0283 17.7977 21.0306 17.8435 21.0302C18.1503 21.0273 18.1979 21.0414 18.3287 20.7204C18.4595 20.3993 21.2375 12.2628 21.2375 12.2628C21.2375 12.2628 21.6228 11.1354 21.7084 10.3933C21.7774 9.79538 21.8341 9.18747 21.7602 8.58711C21.6918 8.03162 21.463 7.40177 21.0549 7.0013C20.8485 6.79878 20.5649 6.68986 20.284 6.64136C20.145 6.61737 19.9947 6.60405 19.8536 6.61306C19.7202 6.62153 19.5726 6.65333 19.4515 6.71178C19.1885 6.83879 18.9698 7.07765 18.8282 7.32973C18.5887 7.75617 18.5186 8.29008 18.6562 8.76129C18.7953 9.23738 19.1495 9.60719 19.4132 10.0152C19.5928 10.2931 19.7442 10.5954 19.8426 10.9118C19.9471 11.2482 20.0085 11.5962 20.0355 11.9471C20.0602 12.2668 20.0727 12.6156 19.9725 12.9247L18.7125 17.3679C18.7125 17.3679 18.6608 17.551 18.6094 17.5494C18.5578 17.5479 18.4641 17.3516 18.3834 17.1433C18.0605 16.3098 15.7006 9.052 15.7006 9.052C15.7006 9.052 15.5757 8.7987 15.9895 8.79513C16.4034 8.79156 16.8565 8.79034 16.8517 8.43834C16.8503 8.33977 16.8135 8.21486 16.7237 8.16308C16.5312 8.0519 16.2902 8.10769 16.0813 8.11566C15.8164 8.12575 15.5518 8.14399 15.2869 8.15397C15.201 8.1572 15.1151 8.16003 15.0291 8.16278C14.7514 8.1716 14.4736 8.17687 14.1958 8.18055C13.9098 8.18436 13.6235 8.18661 13.3376 8.18338C13.087 8.18058 12.8368 8.17631 12.5863 8.16866C12.4866 8.16562 12.3867 8.16601 12.2873 8.15603C12.2082 8.14806 12.1317 8.13885 12.0518 8.14399C11.8616 8.15619 11.7802 8.32781 11.7999 8.50493C11.8379 8.84745 12.2042 8.80937 12.5277 8.81414C12.8511 8.81891 12.9558 8.75229 13.0556 9.04247C13.1555 9.33264 14.2163 12.1914 14.2163 12.1914C14.2163 12.1914 14.2591 12.4103 14.2282 12.5316C14.1973 12.6529 12.599 17.3241 12.599 17.3241C12.599 17.3241 12.4396 18.0281 12.2327 17.2361C12.0259 16.4443 9.45962 8.97138 9.45962 8.97138C9.45962 8.97138 9.37403 8.81438 9.69745 8.80967C10.0209 8.8049 10.2635 8.76209 10.2635 8.76209C10.3395 8.74869 10.42 8.71096 10.4867 8.67369C10.6028 8.60874 10.6674 8.46786 10.6529 8.33795C10.6156 8.00626 10.0738 8.10022 9.85917 8.12943C9.65562 8.15712 9.44919 8.16564 9.24416 8.17533C8.94896 8.18926 8.65344 8.19686 8.358 8.20361C8.03857 8.21094 7.71893 8.21616 7.39942 8.21822C7.11994 8.22003 6.84046 8.22296 6.56099 8.22307C6.25289 8.2232 5.74548 8.10652 5.69941 8.54917C5.68239 8.71247 5.71985 8.88748 5.84945 8.9992C5.91958 9.05962 6.02779 9.09505 6.12032 9.09505Z" fill="white"/>
</g>
<defs>
<linearGradient id="paint0_linear_114_265" x1="19.1373" y1="26.5639" x2="9.86258" y2="1.08072" gradientUnits="userSpaceOnUse">
<stop stop-color="#002137"/>
<stop offset="0.1355" stop-color="#022840"/>
<stop offset="0.3565" stop-color="#083C58"/>
<stop offset="0.6355" stop-color="#125B80"/>
<stop offset="0.9587" stop-color="#1F87B6"/>
<stop offset="1" stop-color="#218DBE"/>
</linearGradient>
<clipPath id="clip0_114_265">
<rect width="27.1111" height="27.1111" fill="white" transform="translate(0.944336 0.266724)"/>
</clipPath>
</defs>
</svg>
