<svg width="134" height="46" viewBox="0 0 134 46" fill="none" xmlns="http://www.w3.org/2000/svg">
<path d="M33.384 23.871C32.136 23.871 31.016 23.679 30.024 23.295C29.032 22.911 28.192 22.351 27.504 21.615C26.816 20.863 26.288 19.951 25.92 18.879C25.552 17.807 25.368 16.575 25.368 15.183C25.368 13.791 25.576 12.559 25.992 11.487C26.424 10.415 27.008 9.51099 27.744 8.77499C28.48 8.02299 29.344 7.45499 30.336 7.07098C31.328 6.68699 32.392 6.49499 33.528 6.49499C34.216 6.49499 34.84 6.55099 35.4 6.66299C35.96 6.75899 36.448 6.87099 36.864 6.99899C37.28 7.12699 37.624 7.26299 37.896 7.40699C38.168 7.55099 38.36 7.65498 38.472 7.71899L37.584 10.191C37.2 9.95099 36.648 9.72699 35.928 9.51899C35.224 9.29499 34.456 9.18299 33.624 9.18299C32.904 9.18299 32.232 9.31099 31.608 9.56699C30.984 9.80699 30.44 10.175 29.976 10.671C29.528 11.167 29.176 11.791 28.92 12.543C28.664 13.295 28.536 14.167 28.536 15.159C28.536 16.039 28.632 16.847 28.824 17.583C29.032 18.319 29.344 18.959 29.76 19.503C30.176 20.031 30.704 20.447 31.344 20.751C31.984 21.039 32.752 21.183 33.648 21.183C34.72 21.183 35.592 21.079 36.264 20.871C36.936 20.647 37.456 20.439 37.824 20.247L38.64 22.719C38.448 22.847 38.184 22.975 37.848 23.103C37.528 23.231 37.144 23.359 36.696 23.487C36.248 23.599 35.744 23.687 35.184 23.751C34.624 23.831 34.024 23.871 33.384 23.871ZM45.5687 21.471C46.4647 21.471 47.1447 21.423 47.6087 21.327V18.111C47.4487 18.063 47.2167 18.015 46.9127 17.967C46.6087 17.919 46.2727 17.895 45.9047 17.895C45.5847 17.895 45.2567 17.919 44.9207 17.967C44.6007 18.015 44.3047 18.103 44.0327 18.231C43.7767 18.359 43.5687 18.543 43.4087 18.783C43.2487 19.007 43.1687 19.295 43.1687 19.647C43.1687 20.335 43.3847 20.815 43.8167 21.087C44.2487 21.343 44.8327 21.471 45.5687 21.471ZM45.3287 10.647C46.2887 10.647 47.0967 10.767 47.7527 11.007C48.4087 11.247 48.9287 11.583 49.3127 12.015C49.7127 12.447 49.9927 12.975 50.1527 13.599C50.3287 14.207 50.4167 14.879 50.4167 15.615V23.223C49.9687 23.319 49.2887 23.431 48.3767 23.559C47.4807 23.703 46.4647 23.775 45.3287 23.775C44.5767 23.775 43.8887 23.703 43.2647 23.559C42.6407 23.415 42.1047 23.183 41.6567 22.863C41.2247 22.543 40.8807 22.127 40.6247 21.615C40.3847 21.103 40.2647 20.471 40.2647 19.719C40.2647 18.999 40.4007 18.391 40.6727 17.895C40.9607 17.399 41.3447 16.999 41.8247 16.695C42.3047 16.375 42.8567 16.151 43.4807 16.023C44.1207 15.879 44.7847 15.807 45.4727 15.807C45.7927 15.807 46.1287 15.831 46.4807 15.879C46.8327 15.911 47.2087 15.975 47.6087 16.071V15.591C47.6087 15.255 47.5687 14.935 47.4887 14.631C47.4087 14.327 47.2647 14.063 47.0567 13.839C46.8647 13.599 46.6007 13.415 46.2647 13.287C45.9447 13.159 45.5367 13.095 45.0407 13.095C44.3687 13.095 43.7527 13.143 43.1927 13.239C42.6327 13.335 42.1767 13.447 41.8247 13.575L41.4647 11.223C41.8327 11.095 42.3687 10.967 43.0727 10.839C43.7767 10.711 44.5287 10.647 45.3287 10.647ZM61.125 13.575C60.885 13.495 60.549 13.415 60.117 13.335C59.701 13.239 59.213 13.191 58.653 13.191C58.333 13.191 57.989 13.223 57.621 13.287C57.269 13.351 57.021 13.407 56.877 13.455V23.511H53.973V11.559C54.533 11.351 55.229 11.159 56.061 10.983C56.909 10.791 57.845 10.695 58.869 10.695C59.061 10.695 59.285 10.711 59.541 10.743C59.797 10.759 60.053 10.791 60.309 10.839C60.565 10.871 60.813 10.919 61.053 10.983C61.293 11.031 61.485 11.079 61.629 11.127L61.125 13.575ZM68.0207 23.751C67.1567 23.735 66.4367 23.639 65.8607 23.463C65.3007 23.287 64.8527 23.039 64.5167 22.719C64.1807 22.383 63.9407 21.975 63.7967 21.495C63.6687 20.999 63.6047 20.439 63.6047 19.815V5.36699L66.5087 4.88699V19.263C66.5087 19.615 66.5327 19.911 66.5807 20.151C66.6447 20.391 66.7487 20.599 66.8927 20.775C67.0367 20.935 67.2287 21.063 67.4687 21.159C67.7247 21.239 68.0447 21.303 68.4287 21.351L68.0207 23.751Z" fill="#92E3A9"/>
<path d="M87.0353 20.895V23.511H76.5233V6.87899H79.5473V20.895H87.0353ZM91.5036 23.511H89.2716V11.031H91.5036V23.511ZM90.3756 8.77499C89.9756 8.77499 89.6316 8.64699 89.3436 8.39099C89.0716 8.11899 88.9356 7.75899 88.9356 7.31099C88.9356 6.86299 89.0716 6.51099 89.3436 6.25499C89.6316 5.98299 89.9756 5.84698 90.3756 5.84698C90.7756 5.84698 91.1116 5.98299 91.3836 6.25499C91.6716 6.51099 91.8156 6.86299 91.8156 7.31099C91.8156 7.75899 91.6716 8.11899 91.3836 8.39099C91.1116 8.64699 90.7756 8.77499 90.3756 8.77499ZM95.3419 11.391C95.8539 11.263 96.5339 11.127 97.3819 10.983C98.2299 10.839 99.2059 10.767 100.31 10.767C101.302 10.767 102.126 10.911 102.782 11.199C103.438 11.471 103.958 11.863 104.342 12.375C104.742 12.871 105.022 13.471 105.182 14.175C105.342 14.879 105.422 15.655 105.422 16.503V23.511H103.19V16.983C103.19 16.215 103.134 15.559 103.022 15.015C102.926 14.471 102.758 14.031 102.518 13.695C102.278 13.359 101.958 13.119 101.558 12.975C101.158 12.815 100.662 12.735 100.07 12.735C99.8299 12.735 99.5819 12.743 99.3259 12.759C99.0699 12.775 98.8219 12.799 98.5819 12.831C98.3579 12.847 98.1499 12.871 97.9579 12.903C97.7819 12.935 97.6539 12.959 97.5739 12.975V23.511H95.3419V11.391ZM119.059 23.151C118.547 23.279 117.867 23.415 117.019 23.559C116.187 23.703 115.219 23.775 114.115 23.775C113.155 23.775 112.347 23.639 111.691 23.367C111.035 23.079 110.507 22.679 110.107 22.167C109.707 21.655 109.419 21.055 109.243 20.367C109.067 19.663 108.979 18.887 108.979 18.039V11.031H111.211V17.559C111.211 19.079 111.451 20.167 111.931 20.823C112.411 21.479 113.219 21.807 114.355 21.807C114.595 21.807 114.843 21.799 115.099 21.783C115.355 21.767 115.595 21.751 115.819 21.735C116.043 21.703 116.243 21.679 116.419 21.663C116.611 21.631 116.747 21.599 116.827 21.567V11.031H119.059V23.151ZM125.808 21.903C126.72 21.903 127.392 21.783 127.824 21.543C128.272 21.303 128.496 20.919 128.496 20.391C128.496 19.847 128.28 19.415 127.848 19.095C127.416 18.775 126.704 18.415 125.712 18.015C125.232 17.823 124.768 17.631 124.32 17.439C123.888 17.231 123.512 16.991 123.192 16.719C122.872 16.447 122.616 16.119 122.424 15.735C122.232 15.351 122.136 14.879 122.136 14.319C122.136 13.215 122.544 12.343 123.36 11.703C124.176 11.047 125.288 10.719 126.696 10.719C127.048 10.719 127.4 10.743 127.752 10.791C128.104 10.823 128.432 10.871 128.736 10.935C129.04 10.983 129.304 11.039 129.528 11.103C129.768 11.167 129.952 11.223 130.08 11.271L129.672 13.191C129.432 13.063 129.056 12.935 128.544 12.807C128.032 12.663 127.416 12.591 126.696 12.591C126.072 12.591 125.528 12.719 125.064 12.975C124.6 13.215 124.368 13.599 124.368 14.127C124.368 14.399 124.416 14.639 124.512 14.847C124.624 15.055 124.784 15.247 124.992 15.423C125.216 15.583 125.488 15.735 125.808 15.879C126.128 16.023 126.512 16.175 126.96 16.335C127.552 16.559 128.08 16.783 128.544 17.007C129.008 17.215 129.4 17.463 129.72 17.751C130.056 18.039 130.312 18.391 130.488 18.807C130.664 19.207 130.752 19.703 130.752 20.295C130.752 21.447 130.32 22.319 129.456 22.911C128.608 23.503 127.392 23.799 125.808 23.799C124.704 23.799 123.84 23.703 123.216 23.511C122.592 23.335 122.168 23.199 121.944 23.103L122.352 21.183C122.608 21.279 123.016 21.423 123.576 21.615C124.136 21.807 124.88 21.903 125.808 21.903Z" fill="white"/>
<path d="M32.69 28.809H33.642V38.511H32.69V33.849H27.426V38.511H26.474V28.809H27.426V33.023H32.69V28.809ZM35.6773 34.885C35.6773 34.2503 35.766 33.6997 35.9433 33.233C36.13 32.757 36.368 32.3603 36.6573 32.043C36.956 31.7257 37.292 31.4923 37.6653 31.343C38.048 31.1843 38.44 31.105 38.8413 31.105C39.728 31.105 40.4327 31.3943 40.9553 31.973C41.4873 32.5517 41.7533 33.443 41.7533 34.647C41.7533 34.7217 41.7487 34.7963 41.7393 34.871C41.7393 34.9457 41.7347 35.0157 41.7253 35.081H36.6433C36.6713 35.9677 36.8907 36.649 37.3013 37.125C37.712 37.601 38.3653 37.839 39.2613 37.839C39.756 37.839 40.148 37.7923 40.4373 37.699C40.7267 37.6057 40.9367 37.5263 41.0673 37.461L41.2353 38.245C41.1047 38.3197 40.8573 38.4083 40.4933 38.511C40.1387 38.6137 39.7187 38.665 39.2333 38.665C38.5987 38.665 38.0573 38.5717 37.6093 38.385C37.1613 38.1983 36.7927 37.937 36.5033 37.601C36.214 37.265 36.004 36.8683 35.8733 36.411C35.7427 35.9443 35.6773 35.4357 35.6773 34.885ZM40.8153 34.311C40.7967 33.555 40.6193 32.967 40.2833 32.547C39.9473 32.127 39.4713 31.917 38.8553 31.917C38.5287 31.917 38.2347 31.9823 37.9733 32.113C37.7213 32.2437 37.4973 32.421 37.3013 32.645C37.1147 32.8597 36.9653 33.1117 36.8533 33.401C36.7507 33.6903 36.69 33.9937 36.6713 34.311H40.8153ZM49.5353 38.287C49.2646 38.3803 48.9193 38.469 48.4993 38.553C48.0793 38.637 47.5473 38.679 46.9033 38.679C46.3713 38.679 45.8859 38.595 45.4473 38.427C45.0179 38.2497 44.6446 37.9977 44.3273 37.671C44.0193 37.3443 43.7766 36.9477 43.5993 36.481C43.4313 36.0143 43.3473 35.487 43.3473 34.899C43.3473 34.3483 43.4173 33.8443 43.5573 33.387C43.7066 32.9203 43.9213 32.519 44.2013 32.183C44.4813 31.847 44.8219 31.5857 45.2233 31.399C45.6339 31.2123 46.1006 31.119 46.6233 31.119C47.0993 31.119 47.5099 31.189 47.8553 31.329C48.2099 31.4597 48.4666 31.5857 48.6253 31.707V27.815L49.5353 27.647V38.287ZM48.6253 32.589C48.5413 32.5237 48.4339 32.4537 48.3033 32.379C48.1819 32.3043 48.0373 32.2343 47.8693 32.169C47.7013 32.1037 47.5193 32.0523 47.3233 32.015C47.1273 31.9683 46.9219 31.945 46.7073 31.945C46.2593 31.945 45.8813 32.0243 45.5733 32.183C45.2746 32.3417 45.0319 32.5563 44.8453 32.827C44.6586 33.0883 44.5233 33.401 44.4393 33.765C44.3553 34.1197 44.3133 34.4977 44.3133 34.899C44.3133 35.851 44.5513 36.5837 45.0273 37.097C45.5033 37.601 46.1333 37.853 46.9173 37.853C47.3653 37.853 47.7246 37.8343 47.9953 37.797C48.2753 37.7503 48.4853 37.7037 48.6253 37.657V32.589ZM53.7774 38.637C53.4694 38.6277 53.1987 38.5857 52.9654 38.511C52.7414 38.4457 52.55 38.343 52.3914 38.203C52.242 38.0537 52.1254 37.867 52.0414 37.643C51.9667 37.4097 51.9294 37.1203 51.9294 36.775V27.815L52.8394 27.647V36.747C52.8394 36.971 52.858 37.153 52.8954 37.293C52.942 37.4237 53.0074 37.531 53.0914 37.615C53.1754 37.6897 53.2827 37.7457 53.4134 37.783C53.5534 37.8203 53.7167 37.853 53.9034 37.881L53.7774 38.637ZM61.0697 38.259C60.7991 38.3337 60.4351 38.4177 59.9777 38.511C59.5204 38.6043 58.9604 38.651 58.2977 38.651C57.7564 38.651 57.3037 38.5717 56.9397 38.413C56.5757 38.2543 56.2817 38.0303 56.0577 37.741C55.8337 37.4517 55.6704 37.1017 55.5677 36.691C55.4744 36.2803 55.4277 35.8277 55.4277 35.333V31.273H56.3377V35.039C56.3377 35.5523 56.3751 35.9863 56.4497 36.341C56.5244 36.6957 56.6457 36.985 56.8137 37.209C56.9817 37.4237 57.1964 37.5823 57.4577 37.685C57.7284 37.7783 58.0551 37.825 58.4377 37.825C58.8671 37.825 59.2404 37.8017 59.5577 37.755C59.8751 37.7083 60.0757 37.6663 60.1597 37.629V31.273H61.0697V38.259ZM63.4824 31.525C63.7531 31.4503 64.1171 31.3663 64.5744 31.273C65.0318 31.1797 65.5918 31.133 66.2544 31.133C66.8051 31.133 67.2624 31.2123 67.6264 31.371C67.9998 31.5297 68.2938 31.7583 68.5084 32.057C68.7324 32.3463 68.8911 32.6963 68.9844 33.107C69.0778 33.5177 69.1244 33.9703 69.1244 34.465V38.511H68.2144V34.759C68.2144 34.2457 68.1771 33.8117 68.1024 33.457C68.0371 33.1023 67.9204 32.813 67.7524 32.589C67.5938 32.365 67.3791 32.2063 67.1084 32.113C66.8471 32.0103 66.5158 31.959 66.1144 31.959C65.6851 31.959 65.3118 31.9823 64.9944 32.029C64.6864 32.0757 64.4858 32.1177 64.3924 32.155V38.511H63.4824V31.525ZM77.2071 38.287C76.9365 38.3803 76.5911 38.469 76.1711 38.553C75.7511 38.637 75.2191 38.679 74.5751 38.679C74.0431 38.679 73.5578 38.595 73.1191 38.427C72.6898 38.2497 72.3165 37.9977 71.9991 37.671C71.6911 37.3443 71.4485 36.9477 71.2711 36.481C71.1031 36.0143 71.0191 35.487 71.0191 34.899C71.0191 34.3483 71.0891 33.8443 71.2291 33.387C71.3785 32.9203 71.5931 32.519 71.8731 32.183C72.1531 31.847 72.4938 31.5857 72.8951 31.399C73.3058 31.2123 73.7725 31.119 74.2951 31.119C74.7711 31.119 75.1818 31.189 75.5271 31.329C75.8818 31.4597 76.1385 31.5857 76.2971 31.707V27.815L77.2071 27.647V38.287ZM76.2971 32.589C76.2131 32.5237 76.1058 32.4537 75.9751 32.379C75.8538 32.3043 75.7091 32.2343 75.5411 32.169C75.3731 32.1037 75.1911 32.0523 74.9951 32.015C74.7991 31.9683 74.5938 31.945 74.3791 31.945C73.9311 31.945 73.5531 32.0243 73.2451 32.183C72.9465 32.3417 72.7038 32.5563 72.5171 32.827C72.3305 33.0883 72.1951 33.401 72.1111 33.765C72.0271 34.1197 71.9851 34.4977 71.9851 34.899C71.9851 35.851 72.2231 36.5837 72.6991 37.097C73.1751 37.601 73.8051 37.853 74.5891 37.853C75.0371 37.853 75.3965 37.8343 75.6671 37.797C75.9471 37.7503 76.1571 37.7037 76.2971 37.657V32.589Z" fill="white"/>
<line x1="18.3093" y1="2.01099" x2="18.3093" y2="44.011" stroke="white" stroke-width="3" stroke-linecap="round"/>
<path d="M7.69193 7.04099C7.69193 7.63432 7.5986 8.15099 7.41193 8.59099C7.22527 9.03099 6.96193 9.39765 6.62193 9.69099C6.2886 9.98432 5.8886 10.2043 5.42193 10.351C4.95527 10.4977 4.44193 10.571 3.88193 10.571C3.60193 10.571 3.3086 10.5543 3.00193 10.521C2.69527 10.4943 2.42527 10.451 2.19193 10.391V3.71099C2.42527 3.64432 2.69527 3.59765 3.00193 3.57099C3.3086 3.53765 3.60193 3.52099 3.88193 3.52099C4.44193 3.52099 4.95527 3.59432 5.42193 3.74099C5.8886 3.88765 6.2886 4.10765 6.62193 4.40099C6.96193 4.69432 7.22527 5.06099 7.41193 5.50099C7.5986 5.94099 7.69193 6.45432 7.69193 7.04099ZM2.87193 9.91099C2.91193 9.91765 3.01193 9.93099 3.17193 9.95099C3.3386 9.97099 3.60193 9.98099 3.96193 9.98099C4.46193 9.98099 4.8986 9.91432 5.27193 9.78099C5.64527 9.64099 5.9586 9.44432 6.21193 9.19099C6.46527 8.93765 6.65527 8.63099 6.78193 8.27099C6.9086 7.90432 6.97193 7.49432 6.97193 7.04099C6.97193 6.58765 6.9086 6.18099 6.78193 5.82099C6.65527 5.46099 6.46527 5.15432 6.21193 4.90099C5.9586 4.64765 5.64527 4.45432 5.27193 4.32099C4.8986 4.18099 4.46193 4.11099 3.96193 4.11099C3.60193 4.11099 3.3386 4.12099 3.17193 4.14099C3.01193 4.16099 2.91193 4.17432 2.87193 4.18099V9.91099ZM2.92924 21.511V14.581H6.92924V15.171H3.60924V17.581H6.56924V18.161H3.60924V20.921H7.18924V21.511H2.92924ZM2.54256 25.581C2.74256 26.1743 2.93589 26.7377 3.12256 27.271C3.30923 27.7977 3.49256 28.311 3.67256 28.811C3.85256 29.3043 4.03589 29.791 4.22256 30.271C4.40923 30.7443 4.60923 31.2243 4.82256 31.711C5.02923 31.231 5.22589 30.7543 5.41256 30.281C5.60589 29.801 5.79256 29.3143 5.97256 28.821C6.15923 28.321 6.34256 27.8043 6.52256 27.271C6.70923 26.7377 6.90256 26.1743 7.10256 25.581H7.82256C7.51589 26.4543 7.23923 27.221 6.99256 27.881C6.75256 28.541 6.52589 29.1377 6.31256 29.671C6.10589 30.2043 5.90589 30.6977 5.71256 31.151C5.52589 31.5977 5.32923 32.051 5.12256 32.511H4.49256C4.28589 32.051 4.08589 31.5977 3.89256 31.151C3.69923 30.6977 3.49589 30.2043 3.28256 29.671C3.07589 29.1377 2.84923 28.541 2.60256 27.881C2.36256 27.221 2.08923 26.4543 1.78256 25.581H2.54256ZM4.60967 43.071C5.14967 43.071 5.56967 42.9743 5.86967 42.781C6.16967 42.581 6.31967 42.261 6.31967 41.821C6.31967 41.5677 6.26967 41.3577 6.16967 41.191C6.07633 41.0177 5.94967 40.8743 5.78967 40.761C5.62967 40.641 5.44633 40.541 5.23967 40.461C5.033 40.3743 4.81633 40.2843 4.58967 40.191C4.303 40.0777 4.04633 39.961 3.81967 39.841C3.593 39.721 3.39967 39.5877 3.23967 39.441C3.07967 39.2877 2.95633 39.1143 2.86967 38.921C2.78967 38.7277 2.74967 38.501 2.74967 38.241C2.74967 37.6477 2.94633 37.1977 3.33967 36.891C3.733 36.5843 4.27967 36.431 4.97967 36.431C5.16633 36.431 5.34967 36.4443 5.52967 36.471C5.70967 36.4977 5.87633 36.5343 6.02967 36.581C6.18967 36.621 6.333 36.6677 6.45967 36.721C6.593 36.7743 6.703 36.831 6.78967 36.891L6.54967 37.461C6.35633 37.3277 6.11967 37.221 5.83967 37.141C5.56633 37.061 5.26967 37.021 4.94967 37.021C4.72967 37.021 4.52633 37.0443 4.33967 37.091C4.15967 37.131 4.003 37.201 3.86967 37.301C3.73633 37.3943 3.62967 37.5143 3.54967 37.661C3.47633 37.8077 3.43967 37.9843 3.43967 38.191C3.43967 38.4043 3.47967 38.5843 3.55967 38.731C3.63967 38.8777 3.74967 39.0043 3.88967 39.111C4.03633 39.2177 4.20633 39.3143 4.39967 39.401C4.593 39.4877 4.803 39.5777 5.02967 39.671C5.303 39.7843 5.55967 39.8977 5.79967 40.011C6.04633 40.1243 6.25967 40.2577 6.43967 40.411C6.61967 40.5643 6.763 40.751 6.86967 40.971C6.97633 41.191 7.02967 41.461 7.02967 41.781C7.02967 42.4077 6.80967 42.8777 6.36967 43.191C5.93633 43.5043 5.34633 43.661 4.59967 43.661C4.333 43.661 4.08967 43.6443 3.86967 43.611C3.64967 43.5777 3.453 43.5377 3.27967 43.491C3.10633 43.4377 2.95967 43.3843 2.83967 43.331C2.71967 43.2777 2.62633 43.231 2.55967 43.191L2.77967 42.601C2.84633 42.641 2.93633 42.6877 3.04967 42.741C3.163 42.7943 3.29633 42.8477 3.44967 42.901C3.603 42.9477 3.77633 42.9877 3.96967 43.021C4.163 43.0543 4.37633 43.071 4.60967 43.071Z" fill="white"/>
</svg>
